<svg width="133" height="44" viewBox="0 0 133 44" fill="none" xmlns="http://www.w3.org/2000/svg">
<rect width="133" height="44" fill="#6F7A8E"/>
<path d="M13.476 15.354C13.206 15.354 13.08 15.156 13.08 14.958C13.08 14.688 13.278 14.382 13.584 14.382C13.818 14.382 14.052 14.382 14.304 14.4C14.376 14.328 14.484 14.274 14.592 14.274C14.682 14.274 14.808 14.328 14.88 14.4C16.644 14.4 18.462 14.544 20.316 14.94C20.532 14.976 20.604 15.174 20.604 15.39C20.604 15.714 20.406 16.092 20.046 16.092C18.354 15.75 16.698 15.516 15.042 15.426C15.078 16.92 15.258 18.45 15.564 19.872C15.636 19.836 15.726 19.818 15.798 19.818C17.688 19.818 20.694 20.358 20.694 22.878C20.694 25.65 18.534 27.162 16.248 27.162C15.186 27.162 14.088 26.928 13.584 26.262C13.512 26.208 13.494 26.136 13.494 26.046C13.494 25.668 14.034 25.182 14.412 25.182C14.502 25.182 14.574 25.2 14.628 25.272C15.078 25.938 15.834 26.28 16.536 26.28C18.156 26.28 19.344 24.534 19.344 22.914C19.344 21.204 17.418 20.7 15.69 20.664C15.636 20.898 15.384 21.024 15.132 21.024C14.862 21.024 14.592 20.898 14.502 20.628C14.232 18.918 14.268 17.154 14.214 15.372C13.98 15.354 13.71 15.354 13.476 15.354ZM23.4026 21.276C23.4026 18.864 24.4106 15.588 27.0386 14.58C27.0386 14.544 27.0566 14.49 27.0746 14.454C27.2186 14.22 27.4346 13.986 27.7946 13.986C31.2686 14.22 32.7806 18.072 32.7806 21.078C32.7806 24.174 30.5486 27.216 27.3266 27.234C24.3566 27.234 23.4026 23.688 23.4026 21.276ZM27.7766 26.19C30.3866 26.154 31.2866 22.878 31.2866 20.682C31.2866 18.288 30.3866 15.732 28.1726 15.156C28.0646 15.3 27.4886 15.426 27.2726 15.426C25.1666 15.696 24.6626 19.44 24.6626 21.258C24.6626 23.202 25.2746 26.046 27.7766 26.19ZM41.441 22.59C41.261 22.464 41.153 22.23 41.153 21.996C41.153 21.708 41.297 21.456 41.585 21.456C43.097 21.906 44.861 23.094 44.861 24.894C44.861 26.19 43.565 26.964 42.341 26.964C41.207 26.964 40.289 25.938 40.289 24.75C40.289 23.976 40.685 23.184 41.441 22.59ZM35.339 17.298C35.339 16.704 35.537 16.506 35.753 16.506C36.041 16.506 36.149 16.902 36.149 17.208C36.149 18.144 37.445 18.504 38.291 18.504C38.813 18.504 39.965 18.108 39.965 17.424C39.965 16.524 37.895 16.11 37.121 16.11C36.401 16.11 35.663 16.29 35.285 16.29C35.069 16.29 34.943 16.038 34.943 15.75C34.943 15.48 35.051 15.156 35.339 15.066C35.699 14.958 36.185 14.904 36.725 14.904C38.525 14.904 40.901 15.516 40.901 17.226C40.901 18.612 39.623 19.674 38.111 19.674C36.725 19.674 35.339 18.846 35.339 17.298ZM44.105 15.066C44.249 14.922 44.393 14.886 44.555 14.886C44.789 14.886 44.987 14.994 44.987 15.192C44.987 15.3 44.933 15.426 44.789 15.534C41.369 19.08 38.525 23.238 36.743 27.738C36.707 28.044 36.347 28.224 36.059 28.224C35.897 28.224 35.753 28.152 35.753 27.972C35.753 27.918 35.771 27.828 35.807 27.738C37.589 23.004 40.415 18.63 44.105 15.066ZM43.961 24.858C43.961 23.994 42.665 23.13 41.927 22.806C41.981 22.914 41.999 23.04 41.999 23.184C41.999 23.796 41.117 24.138 41.117 24.912C41.117 25.542 41.801 25.83 42.377 25.83C42.881 25.83 43.961 25.56 43.961 24.858ZM59.1732 14.274C59.8212 14.274 61.3692 14.688 61.3692 15.588C61.3692 15.876 61.2072 16.11 61.0092 16.11C60.7392 16.11 60.4152 15.372 59.4252 15.372C56.1852 15.372 55.4292 18.63 55.3392 21.438C55.5552 24.138 58.0932 25.776 60.7392 25.776C61.4052 25.776 62.0892 25.416 62.7192 25.416C62.9892 25.416 63.1872 25.74 63.1872 26.01C63.1872 26.208 63.0972 26.388 62.8992 26.46C62.2512 26.766 61.5312 26.928 60.7932 26.928C57.6612 26.928 54.5292 24.534 54.5292 21.078C54.5292 18.126 55.4472 14.274 59.1732 14.274ZM66.1942 14.472C66.1942 14.184 66.4102 14.058 66.6622 14.058C66.9682 14.058 67.2922 14.256 67.2922 14.562C67.3822 15.264 67.4182 15.948 67.4182 16.65C67.4182 17.442 67.3822 18.234 67.3102 19.026C69.0202 18.216 70.5322 16.164 72.0982 14.796C72.2062 14.742 72.3322 14.724 72.4222 14.724C72.7102 14.724 72.8362 14.922 72.8362 15.174C72.8362 15.354 72.7642 15.552 72.5842 15.678C71.3962 16.506 70.4602 17.694 69.3982 18.684C71.4502 21.078 72.7822 24.156 74.1862 27.108C74.2222 27.198 74.2582 27.324 74.2582 27.432C74.2582 27.702 73.9342 28.062 73.6102 28.062C73.5022 28.062 73.3762 28.008 73.3222 27.828C71.9722 25.002 70.7482 21.834 68.5522 19.368C68.1562 19.674 67.7062 19.926 67.2382 20.124C67.1842 21.114 67.0942 22.104 67.0942 23.094C67.0942 24.192 67.1842 25.272 67.4362 26.442C67.4362 26.712 67.2022 26.82 66.8962 26.82C66.5902 26.82 66.2482 26.676 66.1942 26.37C65.9602 25.308 65.8882 24.246 65.8882 23.202C65.8882 20.862 66.2662 18.54 66.2662 16.218C66.2662 15.66 66.2482 15.12 66.1942 14.472ZM81.6604 15.822V15.174C81.6604 14.904 82.3444 14.328 82.6324 14.328C82.9924 14.328 83.1364 14.868 83.1364 15.534C83.1364 17.928 82.8124 20.358 82.8124 22.716C82.8124 25.128 83.3524 25.992 83.3524 26.622C83.3524 26.946 82.9924 27.216 82.6324 27.216C81.5344 27.216 81.5344 22.356 81.5344 21.402C81.5344 20.394 81.5524 19.404 81.6424 18.378C80.2204 21.438 79.8244 22.464 79.5724 23.4C79.1764 24.192 78.9784 26.946 77.7904 26.946C77.1064 26.946 77.1064 25.092 77.1064 24.282C77.2864 22.77 77.4484 21.24 77.4484 19.566C77.4484 18.27 77.3224 16.938 76.9624 15.57C76.9624 15.228 77.4124 14.724 77.7184 14.724C77.8624 14.724 77.9704 14.832 78.0064 15.066C78.3124 16.524 78.4564 18 78.4564 19.458C78.4564 20.97 78.3844 22.5 78.2224 24.03C78.9064 21.96 79.1764 21.186 79.7164 19.998C80.4364 18.666 81.1924 17.28 81.6604 15.822ZM97.2699 15.642C97.2699 16.758 95.5239 20.538 95.5239 24.372C95.5239 24.984 95.5419 25.614 95.5419 26.28C96.7299 26.388 97.9539 26.316 99.2139 26.604C99.5019 26.658 99.6279 26.784 99.6279 26.946C99.6279 27.396 99.0519 27.648 98.5659 27.648C95.6139 27.648 91.0419 26.874 87.4419 26.874C86.8119 26.874 86.1819 26.91 85.5339 26.964H85.4259C85.1199 26.964 84.9759 26.766 84.9759 26.514C84.9759 26.136 85.2639 25.668 85.6779 25.578C86.4519 25.488 87.1359 25.434 87.7839 25.434C88.5039 25.434 89.1879 25.488 89.9079 25.578C89.5479 24.444 89.4399 23.292 89.4399 22.122C89.4399 20.232 89.7279 18.306 89.7279 16.38C89.7279 15.192 90.3399 14.364 91.7979 14.364C92.5539 14.364 97.2699 14.544 97.2699 15.642ZM91.2939 25.776C93.1659 26.064 93.7779 26.154 94.4079 26.208C94.3179 25.578 94.2819 24.948 94.2819 24.318C94.2819 21.744 94.8579 19.206 95.7399 16.434C94.1379 16.164 93.0219 15.894 91.7619 15.894C91.4919 15.894 91.2399 15.912 90.9519 15.93C90.7539 17.838 90.5919 19.548 90.5919 21.114C90.5919 22.806 90.7719 24.354 91.2939 25.776ZM101.561 14.472C101.561 14.184 101.777 14.058 102.029 14.058C102.335 14.058 102.659 14.256 102.659 14.562C102.749 15.264 102.785 15.948 102.785 16.65C102.785 17.442 102.749 18.234 102.677 19.026C104.387 18.216 105.899 16.164 107.465 14.796C107.573 14.742 107.699 14.724 107.789 14.724C108.077 14.724 108.203 14.922 108.203 15.174C108.203 15.354 108.131 15.552 107.951 15.678C106.763 16.506 105.827 17.694 104.765 18.684C106.817 21.078 108.149 24.156 109.553 27.108C109.589 27.198 109.625 27.324 109.625 27.432C109.625 27.702 109.301 28.062 108.977 28.062C108.869 28.062 108.743 28.008 108.689 27.828C107.339 25.002 106.115 21.834 103.919 19.368C103.523 19.674 103.073 19.926 102.605 20.124C102.551 21.114 102.461 22.104 102.461 23.094C102.461 24.192 102.551 25.272 102.803 26.442C102.803 26.712 102.569 26.82 102.263 26.82C101.957 26.82 101.615 26.676 101.561 26.37C101.327 25.308 101.255 24.246 101.255 23.202C101.255 20.862 101.633 18.54 101.633 16.218C101.633 15.66 101.615 15.12 101.561 14.472ZM112.852 22.122C112.528 22.05 112.366 21.852 112.366 21.654C112.366 21.438 112.564 21.24 112.924 21.222C113.104 19.116 113.302 17.028 113.734 15.012C113.806 14.652 114.094 14.346 114.4 14.346C114.508 14.346 114.634 14.382 114.724 14.49C116.218 15.876 116.704 18 117.262 21.366C117.496 21.402 117.658 21.636 117.658 21.852C117.658 22.014 117.568 22.158 117.37 22.212C117.586 23.976 117.46 25.11 118.45 25.83C118.558 25.92 118.594 25.992 118.594 26.1C118.594 26.406 118.162 26.802 117.82 26.802C117.712 26.802 117.64 26.766 117.586 26.712C116.362 25.65 116.416 23.814 116.254 22.284C115.912 22.32 115.606 22.32 115.282 22.32C115.084 22.32 114.904 22.266 114.67 22.248H113.932C113.77 23.652 113.626 25.056 113.338 26.46C113.338 26.802 112.978 27.036 112.69 27.036C112.492 27.036 112.33 26.946 112.33 26.694C112.582 25.11 112.726 23.616 112.852 22.122ZM114.598 16.272C114.328 17.982 114.202 19.674 114.022 21.384C114.472 21.438 114.94 21.456 115.426 21.456C115.66 21.456 115.894 21.438 116.128 21.438C115.714 19.044 115.408 17.478 114.598 16.272Z" fill="white"/>
</svg>
