<svg width="307" height="986" viewBox="0 0 307 986" fill="none" xmlns="http://www.w3.org/2000/svg">
<path d="M-761.263 32.9633C-754.177 27.7433 -690.592 16.0919 -659.686 10.9186C-338.166 267.569 -1.42262 239.703 174.991 219.199C184.911 239.264 191.127 393.723 192.995 468.444C-272.441 366.814 -628.231 140.517 -761.263 32.9633Z" stroke="white" stroke-opacity="0.5" stroke-width="3"/>
<path d="M-870.382 76.4304C-850.998 63.8785 -806.937 47.2522 -787.33 40.508C-457.454 303.869 3.07742 477.704 192.109 531.701C189.29 602.686 173.029 704.786 165.251 746.963C-214.47 535.001 -683.388 211.624 -870.382 76.4304Z" stroke="white" stroke-opacity="0.5" stroke-width="3"/>
<path d="M-955.163 138.884C-933.35 115.217 -903.42 95.2988 -891.182 88.2984C-437.371 409.081 -146.825 602.453 167.959 811.067C145.023 891.949 94.7665 956.117 80.2962 983.003C-304.033 597.932 -770.147 259.811 -955.163 138.884Z" stroke="white" stroke-opacity="0.5" stroke-width="3"/>
</svg>
