<svg width="549" height="869" viewBox="0 0 549 869" fill="none" xmlns="http://www.w3.org/2000/svg">
<path d="M136.485 192.574C143.005 198.486 167.022 258.502 178.216 287.771C-9.64954 653.764 84.377 978.312 139.425 1147.17C121.723 1160.87 -28.443 1197.56 -101.313 1214.19C-93.9065 737.847 57.4182 344.278 136.485 192.574Z" fill="#6E7B8E"/>
<path d="M72.261 94.2298C88.4043 110.743 113.43 150.636 123.925 168.519C-68.8631 544.032 -148.015 1029.87 -163.492 1225.86C-233.628 1237.16 -336.927 1241.45 -379.809 1242.18C-247.275 827.99 -23.2066 304.301 72.261 94.2298Z" fill="#6E7B8E"/>
<path d="M-5.75041 23.5025C21.769 40.194 47.2214 65.5846 56.5077 76.1934C-168.011 584.56 -299.989 907.657 -442.105 1257.53C-525.928 1251.07 -598.78 1214.53 -628 1205.67C-326.703 752.67 -87.6265 228.808 -5.75041 23.5025Z" fill="#6E7B8E"/>
</svg>
