<svg width="47" height="47" viewBox="0 0 47 47" fill="none" xmlns="http://www.w3.org/2000/svg">
<path d="M23.5001 39.1667C22.3251 39.1667 21.3949 39.4931 20.7095 40.1458C20.024 40.7986 18.7674 41.125 16.9397 41.125C15.1119 41.125 13.8553 40.7986 13.1699 40.1458C12.4845 39.4931 11.5543 39.1667 10.3793 39.1667C9.43273 39.1667 8.71467 39.3873 8.22509 39.8286C7.7355 40.2699 6.96849 40.6204 5.92405 40.8802C5.40182 41.0108 4.93705 40.8965 4.52971 40.5375C4.12238 40.1785 3.91806 39.7215 3.91675 39.1667C3.91545 38.6118 4.11128 38.1307 4.50425 37.7234C4.89723 37.316 5.33785 36.9812 5.82613 36.7188C6.38099 36.425 6.96849 36.1064 7.58863 35.7631C8.20877 35.4197 9.13898 35.2487 10.3793 35.25C12.207 35.25 13.4636 35.5764 14.149 36.2292C14.8345 36.8819 15.7647 37.2083 16.9397 37.2083C18.1147 37.2083 19.0449 36.8819 19.7303 36.2292C20.4157 35.5764 21.6723 35.25 23.5001 35.25C25.3279 35.25 26.5845 35.5764 27.2699 36.2292C27.9553 36.8819 28.8855 37.2083 30.0605 37.2083C31.2355 37.2083 32.1657 36.8819 32.8511 36.2292C33.5365 35.5764 34.7931 35.25 36.6209 35.25C37.8612 35.25 38.7914 35.4217 39.4115 35.765C40.0317 36.1084 40.6192 36.4263 41.174 36.7188C41.6636 36.9799 42.1043 37.3147 42.4959 37.7234C42.8876 38.132 43.0834 38.6131 43.0834 39.1667C43.0834 39.7202 42.8798 40.1772 42.4724 40.5375C42.0651 40.8978 41.5997 41.0121 41.0761 40.8802C40.0317 40.6191 39.2647 40.2686 38.7751 39.8286C38.2855 39.3886 37.5675 39.168 36.6209 39.1667C35.4459 39.1667 34.5157 39.4931 33.8303 40.1458C33.1449 40.7986 31.8883 41.125 30.0605 41.125C28.2327 41.125 26.9761 40.7986 26.2907 40.1458C25.6053 39.4931 24.6751 39.1667 23.5001 39.1667ZM23.5001 30.3542C22.2598 30.3542 21.3374 30.6806 20.733 31.3333C20.1285 31.9861 18.8641 32.3125 16.9397 32.3125C15.0153 32.3125 13.7339 31.9861 13.0955 31.3333C12.457 30.6806 11.5516 30.3542 10.3793 30.3542C9.43273 30.3542 8.71467 30.5748 8.22509 31.0161C7.7355 31.4574 6.96849 31.8079 5.92405 32.0677C5.40182 32.1983 4.93705 32.084 4.52971 31.725C4.12238 31.366 3.91806 30.909 3.91675 30.3542C3.91545 29.7993 4.11128 29.3182 4.50425 28.9109C4.89723 28.5035 5.33785 28.1687 5.82613 27.9063C6.38099 27.6125 6.96849 27.2939 7.58863 26.9506C8.20877 26.6072 9.13898 26.4362 10.3793 26.4375C12.207 26.4375 13.4721 26.7639 14.1745 27.4167C14.8769 28.0694 15.7986 28.3958 16.9397 28.3958C18.1147 28.3958 19.0449 28.0694 19.7303 27.4167C20.4157 26.7639 21.6723 26.4375 23.5001 26.4375C25.3279 26.4375 26.5845 26.7639 27.2699 27.4167C27.9553 28.0694 28.8855 28.3958 30.0605 28.3958C31.2355 28.3958 32.1657 28.0694 32.8511 27.4167C33.5365 26.7639 34.7931 26.4375 36.6209 26.4375C37.8612 26.4375 38.7914 26.6092 39.4115 26.9525C40.0317 27.2959 40.6192 27.6138 41.174 27.9063C41.6636 28.1674 42.1043 28.5022 42.4959 28.9109C42.8876 29.3195 43.0834 29.8006 43.0834 30.3542C43.0834 30.9077 42.8798 31.3647 42.4724 31.725C42.0651 32.0853 41.5997 32.1996 41.0761 32.0677C40.0317 31.8066 39.2647 31.4561 38.7751 31.0161C38.2855 30.5761 37.5675 30.3555 36.6209 30.3542C35.4459 30.3542 34.5399 30.6806 33.9028 31.3333C33.2656 31.9861 31.9849 32.3125 30.0605 32.3125C28.2001 32.3125 26.9357 31.9861 26.2672 31.3333C25.5988 30.6806 24.6764 30.3542 23.5001 30.3542ZM13.5126 22.325L20.024 15.8135L18.0657 13.8552C17.2497 13.0392 16.4096 12.3943 15.5453 11.9204C14.6811 11.4465 13.6934 11.1286 12.5824 10.9667C11.9296 10.8361 11.3669 10.526 10.8943 10.0365C10.4217 9.54688 10.1847 8.9757 10.1834 8.32292C10.1834 7.6375 10.4282 7.05784 10.9178 6.58392C11.4074 6.11 11.9786 5.90634 12.6313 5.97292C14.3938 6.13611 15.9115 6.50363 17.1845 7.07546C18.4574 7.64729 19.714 8.5527 20.9543 9.79167L33.4876 22.325C32.9327 22.684 32.3942 22.9699 31.872 23.1828C31.3497 23.3956 30.7459 23.5013 30.0605 23.5C28.8855 23.5 27.9553 23.1736 27.2699 22.5208C26.5845 21.8681 25.3279 21.5417 23.5001 21.5417C21.6723 21.5417 20.4157 21.8681 19.7303 22.5208C19.0449 23.1736 18.1147 23.5 16.9397 23.5C16.2543 23.5 15.6504 23.3943 15.1282 23.1828C14.606 22.9713 14.0674 22.6853 13.5126 22.325ZM32.7043 5.875C34.0751 5.875 35.2338 6.35675 36.1803 7.32025C37.1268 8.28375 37.6001 9.43395 37.6001 10.7708C37.6001 12.1417 37.1268 13.3004 36.1803 14.2469C35.2338 15.1934 34.0751 15.6667 32.7043 15.6667C31.3334 15.6667 30.1747 15.1934 29.2282 14.2469C28.2817 13.3004 27.8084 12.1417 27.8084 10.7708C27.8084 9.43264 28.2817 8.28179 29.2282 7.31829C30.1747 6.35479 31.3334 5.8737 32.7043 5.875Z" fill="white"/>
</svg>
