<svg width="52" height="52" viewBox="0 0 52 52" fill="none" xmlns="http://www.w3.org/2000/svg">
<path d="M18.6805 46.669C18.8675 46.8718 18.967 47.1403 18.9573 47.416C18.9475 47.6917 18.8294 47.9525 18.6285 48.1416L16.3696 50.2539C16.1679 50.4413 15.9 50.5409 15.6249 50.531C15.3498 50.521 15.0898 50.4023 14.9022 50.2008L1.7472 36.0235C1.56026 35.8206 1.46096 35.5521 1.47089 35.2763C1.48083 35.0006 1.59918 34.7399 1.80024 34.5509L4.06224 32.4418C4.16205 32.3489 4.27919 32.2765 4.40697 32.2289C4.53475 32.1813 4.67067 32.1593 4.80695 32.1642C4.94323 32.1692 5.0772 32.2009 5.20121 32.2576C5.32522 32.3143 5.43683 32.3949 5.52968 32.4948L18.6805 46.669ZM35.4661 19.993C35.653 20.1959 35.7523 20.4645 35.7424 20.7402C35.7324 21.016 35.6141 21.2766 35.413 21.4656L21.1962 34.7464C20.9945 34.9338 20.7267 35.0335 20.4515 35.0236C20.1764 35.0136 19.9164 34.8949 19.7288 34.6934L16.3353 31.0315C16.1483 30.8286 16.049 30.5601 16.059 30.2843C16.0689 30.0086 16.1873 29.7479 16.3883 29.5589L30.602 16.2781C30.7017 16.1852 30.8188 16.1129 30.9465 16.0653C31.0742 16.0177 31.21 15.9957 31.3462 16.0006C31.4824 16.0056 31.6163 16.0373 31.7402 16.094C31.8641 16.1507 31.9756 16.2313 32.0684 16.3311L35.4661 19.993ZM23.5175 42.1481C23.9065 42.5672 23.8826 43.2297 23.4645 43.6207L21.2025 45.7319C21.1027 45.8249 20.9855 45.8972 20.8577 45.9448C20.73 45.9925 20.594 46.0144 20.4578 46.0095C20.3215 46.0046 20.1875 45.9728 20.0635 45.9161C19.9395 45.8594 19.8279 45.7788 19.735 45.6789L6.58736 31.5016C6.40028 31.2988 6.30081 31.0304 6.31054 30.7546C6.32028 30.4789 6.43844 30.2181 6.63936 30.029L8.8972 27.9188C9.0989 27.7314 9.36675 27.6318 9.64189 27.6417C9.91704 27.6516 10.177 27.7704 10.3646 27.9719L23.5175 42.1481ZM45.423 20.5015C45.6098 20.7046 45.709 20.9732 45.6988 21.249C45.6887 21.5247 45.5702 21.7854 45.369 21.9742L43.108 24.0854C42.9062 24.273 42.6383 24.3729 42.363 24.3631C42.0877 24.3534 41.8275 24.2348 41.6395 24.0334L28.4898 9.85923C28.3024 9.65653 28.2028 9.38803 28.2125 9.1122C28.2223 8.83637 28.3406 8.57556 28.5418 8.38659L30.809 6.27019C30.9087 6.1773 31.0257 6.10498 31.1534 6.05737C31.2811 6.00976 31.417 5.98779 31.5532 5.99272C31.6893 5.99764 31.8232 6.02937 31.9472 6.08608C32.0711 6.14279 32.1826 6.22338 32.2754 6.32323L45.423 20.5015ZM50.2528 15.9879C50.4395 16.1912 50.5387 16.4598 50.5288 16.7357C50.5188 17.0115 50.4006 17.2723 50.1998 17.4616L47.943 19.5718C47.8433 19.6647 47.7263 19.7371 47.5986 19.7848C47.471 19.8325 47.3352 19.8546 47.199 19.8498C47.0628 19.8449 46.9289 19.8133 46.8049 19.7567C46.681 19.7001 46.5694 19.6196 46.4766 19.5198L33.3289 5.33939C33.142 5.13627 33.0427 4.86771 33.0524 4.59187C33.0621 4.31604 33.1801 4.05514 33.3809 3.86571L35.6398 1.75139C35.7393 1.65834 35.8562 1.58585 35.9837 1.53809C36.1113 1.49033 36.2471 1.46823 36.3832 1.47306C36.5194 1.47789 36.6532 1.50956 36.7771 1.56625C36.901 1.62293 37.0125 1.70352 37.1051 1.80339L50.2528 15.9879Z" fill="white"/>
</svg>
