<svg width="45" height="45" viewBox="0 0 45 45" fill="none" xmlns="http://www.w3.org/2000/svg">
<path d="M22.5 30.2138C15.0037 19.0556 6.42375 17.0081 6.0375 16.92L3.75 16.4062V18.75C3.75 32.4188 11.1094 41.25 22.5 41.25C33.7144 41.25 41.25 32.2087 41.25 18.75V16.4062L38.9625 16.92C38.5762 17.0081 29.9962 19.0556 22.5 30.2138Z" fill="white"/>
<path d="M21.1387 7.06313C17.7656 10.6219 15.8137 14.1413 14.6831 16.9913C17.175 18.4613 19.8975 20.6344 22.4812 23.9006C25.0387 20.6006 27.78 18.4163 30.3 16.9463C29.1656 14.1056 27.2137 10.6031 23.8594 7.06313L22.5 5.625L21.1387 7.06313Z" fill="white"/>
</svg>
