<svg width="161" height="59" viewBox="0 0 161 59" fill="none" xmlns="http://www.w3.org/2000/svg">
<path d="M66.0666 30.4741C64.3312 30.4741 62.621 30.2981 60.9108 30.2981C60.8605 30.2981 60.8102 30.2478 60.7348 30.2226C60.7348 32.2346 60.106 34.3221 60.106 36.485C60.106 36.9377 60.1312 37.3652 60.1815 37.8179C60.1815 38.1449 60.0054 38.6982 59.4521 38.6982C58.6976 38.3461 58.6473 37.2646 58.6473 36.3592C58.6473 34.3724 59.2761 32.3855 59.4521 30.2226C59.4521 27.9088 59.1503 25.3938 58.7982 22.8788C58.421 22.8537 58.2952 22.6273 58.2952 22.3758C58.2952 21.9231 58.7479 21.3698 59.2509 21.3698C59.3767 21.3698 59.5276 21.395 59.6533 21.4704C62.118 21.7722 64.5324 21.6213 66.9971 21.9483C67.3241 22.0237 67.475 22.1998 67.475 22.401C67.475 22.904 66.7959 23.4321 66.2678 23.4321C66.1923 23.4321 66.142 23.4321 66.0666 23.407C64.2809 22.9794 62.2438 23.1303 60.2821 23.0046C60.5587 24.916 60.7851 26.8274 60.7851 28.8142C60.936 28.7388 61.2881 28.7136 61.7408 28.7136C62.9731 28.7136 66.645 28.764 66.645 29.8957C66.645 30.1975 66.4187 30.4741 66.0666 30.4741ZM71.8348 39.4527C71.4324 39.4527 71.0551 39.2264 71.0551 38.7485C71.0551 38.497 71.4072 38.2706 71.6587 38.2706C71.7845 38.2706 71.9102 38.2706 72.0611 38.2958C71.8851 37.8179 71.8348 37.3149 71.8348 36.8119C71.8348 35.2275 72.036 32.8634 72.036 31.128C72.036 28.0597 71.5833 25.8968 71.5078 22.1244L70.703 22.1998C70.4264 22.1998 70.2503 21.9231 70.2503 21.5962C70.2503 21.2441 70.4515 20.8417 70.8036 20.7662C71.4827 20.6908 72.1869 20.565 72.8911 20.565C73.3941 20.565 73.9222 20.6656 74.4252 20.7662C74.727 20.8165 74.8779 21.1183 74.8779 21.4453C74.8779 21.8225 74.6767 22.1998 74.2995 22.1998C73.7965 22.0992 73.2935 22.0489 72.7905 22.0489C72.7905 25.419 73.3689 27.7328 73.3689 31.1532C73.3689 32.5867 73.218 34.8251 73.218 36.3592C73.218 36.9377 73.2935 37.4658 73.5953 38.2455C73.9222 38.2455 74.551 38.4467 74.551 38.8742C74.551 39.0754 74.3498 39.3018 74.1234 39.3018C73.3941 39.4527 72.6899 39.4527 71.8348 39.4527ZM83.2466 22.0992V20.9675C83.2466 20.5147 83.7747 20.2381 84.2274 20.2381C84.5292 20.2381 84.7807 20.389 84.7807 20.6908C84.7556 21.1938 84.7556 21.6716 84.7556 22.1495C85.4346 22.1746 86.164 22.1998 86.843 22.1998C88.1508 22.1998 89.4083 21.8728 90.691 21.8728C91.0179 21.8728 91.194 22.1244 91.194 22.4261C91.194 22.7782 90.9676 23.2058 90.5401 23.2813C89.1317 23.5579 87.673 23.6585 86.2143 23.6585C85.7364 23.6585 85.2334 23.6082 84.7807 23.6082C84.9316 27.1292 85.6358 30.5999 85.6358 34.0957C85.6358 35.5041 85.5101 36.9629 85.2083 38.3713C85.1328 38.7485 84.7556 39 84.3783 39C84.1017 39 83.8502 38.8239 83.8502 38.497C84.1268 37.0131 84.2526 35.6299 84.2526 34.2718C84.2526 30.7256 83.5232 27.1543 83.2969 23.583C82.2406 23.5579 81.2094 23.5076 80.128 23.5076C79.3986 23.5076 78.6441 23.5327 77.789 23.583C77.4872 23.583 77.3866 23.3818 77.3866 23.1052C77.3866 22.6525 77.7387 22.0489 78.1663 22.0489H80.128C81.1088 22.0489 82.14 22.0489 83.2466 22.0992ZM101.2 31.631C101.251 31.455 101.653 30.8765 102.131 30.8765C102.433 30.8765 102.76 31.128 103.087 31.8071C103.917 33.2155 104.772 35.9317 105.803 37.2646C106.432 33.3161 106.784 28.7891 106.784 24.8908C106.784 24.0609 107.312 23.7591 107.765 23.7591C108.192 23.7591 108.544 23.9855 108.569 24.2872C107.639 28.8897 108.293 34.2718 106.708 38.8239C106.582 38.9497 106.281 39.1006 105.979 39.1006C105.803 39.1006 105.602 39.0503 105.476 38.9246C104.093 37.4407 103.212 35.1018 102.181 33.2909C101.301 35.0766 100.094 36.6862 99.5405 38.497C99.4399 38.9497 99.0626 39.1006 98.6602 39.1006C98.283 39.1006 97.9057 38.9497 97.8051 38.673C95.4913 33.1149 94.4853 28.94 92.5236 23.407C92.4733 23.2309 92.4482 23.1052 92.4482 22.9543C92.4482 22.3758 92.8506 21.898 93.2027 21.898C93.3284 21.898 93.4793 21.9483 93.5548 22.1495C95.4159 26.8777 96.7991 32.2346 98.7357 36.8371C99.1632 36.8119 100.295 32.9137 101.2 31.631ZM115.297 32.5365L114.014 32.3101C113.712 32.2598 113.611 32.0083 113.611 31.7316C113.611 31.2538 113.938 30.6502 114.517 30.6502L115.498 30.8765L115.548 30.4993C115.95 27.4561 116.252 25.0669 117.057 22.9291L116.806 22.401C116.806 21.8477 117.309 21.4453 117.786 21.4453C118.063 21.4453 118.289 21.5207 118.465 21.7471C119.849 25.0418 121.383 28.2861 122.665 31.6059C122.766 31.631 122.867 31.631 122.942 31.631C123.294 31.7316 123.42 32.0586 123.42 32.3855C123.42 32.637 123.37 32.9137 123.219 33.0897C123.898 34.7999 124.476 36.5353 124.929 38.3964C124.929 38.8994 124.376 39.3018 123.923 39.3018C123.671 39.3018 123.47 39.2012 123.395 38.9246C122.867 36.9629 122.213 35.0514 121.483 33.14C119.849 32.9388 118.214 32.8382 116.604 32.6622C116.428 34.0203 115.623 36.158 115.623 37.3401C115.623 37.5664 115.724 37.7425 115.724 37.994C115.724 38.497 115.221 38.9497 114.819 38.9497C114.316 38.9497 114.24 38.2958 114.24 37.8431C114.24 36.2083 114.944 34.2718 115.297 32.5365ZM117.912 24.7903C117.359 26.8525 117.158 29.0154 116.806 31.0526C118.138 31.2538 119.497 31.3292 120.83 31.455C119.899 29.1663 118.918 26.9531 117.912 24.7903ZM129.025 21.6465C129.378 21.2189 129.705 21.0429 129.981 21.0429C130.308 21.0429 130.56 21.2944 130.56 21.6716C130.56 22.7028 130.057 23.7339 130.057 24.8908C130.057 29.0406 132.647 33.6682 134.659 37.0131C138.079 33.4167 139.714 25.8214 142.103 21.1435C142.204 20.8165 142.456 20.6908 142.707 20.6908C143.109 20.6908 143.537 21.0429 143.537 21.5459C143.537 21.6716 143.512 21.8477 143.411 21.9986C140.594 27.7076 136.847 39.0252 134.659 39C131.138 35.7808 128.447 29.7196 128.447 24.5639C128.447 23.5076 128.623 22.4765 129.025 21.6465ZM147.553 21.2189C147.603 20.7662 148.132 20.5147 148.584 20.5147C148.886 20.5147 149.138 20.6656 149.163 20.9171C151.854 21.0429 154.444 22.3004 157.186 22.4765C157.513 22.4765 157.638 22.6776 157.638 22.904C157.638 23.3064 157.211 23.9351 156.708 23.9351C154.117 23.7842 151.653 22.6273 149.062 22.3758C148.936 25.595 148.962 28.8142 148.861 32.0837C151.099 31.7568 153.313 31.3292 155.576 31.3292C156.255 31.3292 156.582 31.7316 156.582 32.0837C156.582 32.3604 156.381 32.6119 156.054 32.6119C153.69 32.6119 151.301 32.9388 148.76 33.4167C148.685 34.8251 148.584 36.2083 148.383 37.5916L153.111 38.0443C155.677 38.0443 156.708 37.5916 156.783 37.5916C157.437 37.5916 157.789 38.1449 157.789 38.5976C157.789 38.8742 157.613 39.1006 157.311 39.1006C155.651 39.1006 153.212 39.3521 151.124 39.3521C148.76 39.3521 146.799 39.0503 146.799 37.7928C146.799 37.667 146.799 37.5664 146.824 37.4407C147.654 31.8071 147.201 26.8274 147.553 21.2189Z" fill="black"/>
<mask id="mask0_162_174" style="mask-type:alpha" maskUnits="userSpaceOnUse" x="4" y="10" width="46" height="47">
<path d="M10.5385 33.8738C8.50782 31.3219 6.62598 28.6544 4.90239 25.8845C17.2733 23.9341 25.1081 18.8884 28.4067 10.7474C29.7559 10.5467 31.1152 10.4233 32.4779 10.3779C28.4148 19.6617 21.1017 27.4936 10.5385 33.8738Z" fill="#6F7A8E"/>
<path d="M47.7481 56.01C44.888 55.5811 42.0642 54.9394 39.3002 54.09C37.072 37.1823 39.5494 23.8291 46.7327 14.0305C47.7451 14.6793 48.7076 15.4031 49.612 16.1959C41.6854 25.0945 41.0642 38.3659 47.7481 56.01Z" fill="#6F7A8E"/>
<path d="M37.104 53.3829C34.4369 52.4387 31.8476 51.2878 29.3596 49.9407C32.0353 35.0029 36.4797 22.3512 42.693 11.9857C43.7953 12.413 44.8621 12.9266 45.8836 13.5218C38.9163 23.5023 35.9898 36.7894 37.104 53.3829Z" fill="#6F7A8E"/>
<path d="M27.3614 48.8051C24.8911 47.3345 22.5357 45.6787 20.3152 43.852C27.0576 32.0661 33.063 21.039 38.3313 10.7705C39.5126 10.9927 40.6758 11.3016 41.8115 11.6946C35.7888 22.0707 30.9721 34.4408 27.3614 48.8051Z" fill="#6F7A8E"/>
<path d="M18.5072 42.3048C16.2477 40.2943 14.1286 38.1308 12.1646 35.8295C22.1419 28.3758 29.271 19.8795 33.5521 10.3407C34.8178 10.3437 36.0816 10.434 37.3345 10.6109C31.7969 21.5975 25.506 32.1876 18.5072 42.3048Z" fill="#6F7A8E"/>
<path d="M10.5385 33.8738C8.50782 31.3219 6.62598 28.6544 4.90239 25.8845C17.2733 23.9341 25.1081 18.8884 28.4067 10.7474C29.7559 10.5467 31.1152 10.4233 32.4779 10.3779C28.4148 19.6617 21.1017 27.4936 10.5385 33.8738Z" fill="#6F7A8E"/>
<path d="M47.7481 56.01C44.888 55.5811 42.0642 54.9394 39.3002 54.09C37.072 37.1823 39.5494 23.8291 46.7327 14.0305C47.7451 14.6793 48.7076 15.4031 49.612 16.1959C41.6854 25.0945 41.0642 38.3659 47.7481 56.01Z" fill="#6F7A8E"/>
<path d="M37.104 53.3829C34.4369 52.4387 31.8476 51.2878 29.3596 49.9407C32.0353 35.0029 36.4797 22.3512 42.693 11.9857C43.7953 12.413 44.8621 12.9266 45.8836 13.5218C38.9163 23.5023 35.9898 36.7894 37.104 53.3829Z" fill="#6F7A8E"/>
<path d="M27.3614 48.8051C24.8911 47.3345 22.5357 45.6787 20.3152 43.852C27.0576 32.0661 33.063 21.039 38.3313 10.7705C39.5126 10.9927 40.6758 11.3016 41.8115 11.6946C35.7888 22.0707 30.9721 34.4408 27.3614 48.8051Z" fill="#6F7A8E"/>
<path d="M18.5072 42.3048C16.2477 40.2943 14.1286 38.1308 12.1646 35.8295C22.1419 28.3758 29.271 19.8795 33.5521 10.3407C34.8178 10.3437 36.0816 10.434 37.3345 10.6109C31.7969 21.5975 25.506 32.1876 18.5072 42.3048Z" fill="#6F7A8E"/>
</mask>
<g mask="url(#mask0_162_174)">
<circle cx="29.8871" cy="29.9295" r="16.0286" transform="rotate(24.8038 29.8871 29.9295)" fill="#6F7A8E"/>
</g>
</svg>
