<svg width="68" height="65" viewBox="0 0 68 65" fill="none" xmlns="http://www.w3.org/2000/svg">
<g clip-path="url(#clip0_192_2)">
<mask id="mask0_192_2" style="mask-type:alpha" maskUnits="userSpaceOnUse" x="-9" y="-1" width="78" height="80">
<path d="M1.13513 40.2913C-2.35941 35.8999 -5.59776 31.3095 -8.56377 26.5429C12.7246 23.1866 26.2069 14.5038 31.8833 0.494571C34.205 0.149051 36.5441 -0.0632448 38.8893 -0.141279C31.8972 15.8345 19.3125 29.3121 1.13513 40.2913Z" fill="#6F7A8E"/>
<path d="M65.1669 78.3841C60.245 77.6461 55.3858 76.5417 50.6294 75.0801C46.7949 45.9847 51.0583 23.006 63.4195 6.14424C65.1617 7.26069 66.8179 8.50624 68.3743 9.87049C54.734 25.1836 53.6648 48.0214 65.1669 78.3841Z" fill="#6F7A8E"/>
<path d="M46.8499 73.8632C42.2602 72.2384 37.8045 70.2579 33.5231 67.9398C38.1275 42.2342 45.7757 20.4627 56.4677 2.62541C58.3646 3.36063 60.2004 4.24448 61.9582 5.26877C49.9686 22.4436 44.9325 45.3084 46.8499 73.8632Z" fill="#6F7A8E"/>
<path d="M30.0846 65.9857C25.8337 63.455 21.7804 60.6057 17.9593 57.4621C29.5619 37.1807 39.8961 18.2047 48.9621 0.534293C50.9949 0.91672 52.9965 1.44826 54.9509 2.12462C44.5869 19.9801 36.2981 41.2671 30.0846 65.9857Z" fill="#6F7A8E"/>
<path d="M14.848 54.7998C10.9598 51.3399 7.31306 47.6169 3.93334 43.6567C21.1026 30.8301 33.3708 16.2095 40.7378 -0.205317C42.9159 -0.200103 45.0907 -0.0447631 47.2467 0.259604C37.7174 19.1658 26.8918 37.3896 14.848 54.7998Z" fill="#6F7A8E"/>
<path d="M1.13513 40.2913C-2.35941 35.8999 -5.59776 31.3095 -8.56377 26.5429C12.7246 23.1866 26.2069 14.5038 31.8833 0.494571C34.205 0.149051 36.5441 -0.0632448 38.8893 -0.141279C31.8972 15.8345 19.3125 29.3121 1.13513 40.2913Z" fill="#6F7A8E"/>
<path d="M65.1669 78.3841C60.245 77.6461 55.3858 76.5417 50.6294 75.0801C46.7949 45.9847 51.0583 23.006 63.4195 6.14424C65.1617 7.26069 66.8179 8.50624 68.3743 9.87049C54.734 25.1836 53.6648 48.0214 65.1669 78.3841Z" fill="#6F7A8E"/>
<path d="M46.8499 73.8632C42.2602 72.2384 37.8045 70.2579 33.5231 67.9398C38.1275 42.2342 45.7757 20.4627 56.4677 2.62541C58.3646 3.36063 60.2004 4.24448 61.9582 5.26877C49.9686 22.4436 44.9325 45.3084 46.8499 73.8632Z" fill="#6F7A8E"/>
<path d="M30.0846 65.9857C25.8337 63.455 21.7804 60.6057 17.9593 57.4621C29.5619 37.1807 39.8961 18.2047 48.9621 0.534293C50.9949 0.91672 52.9965 1.44826 54.9509 2.12462C44.5869 19.9801 36.2981 41.2671 30.0846 65.9857Z" fill="#6F7A8E"/>
<path d="M14.848 54.7998C10.9598 51.3399 7.31306 47.6169 3.93334 43.6567C21.1026 30.8301 33.3708 16.2095 40.7378 -0.205317C42.9159 -0.200103 45.0907 -0.0447631 47.2467 0.259604C37.7174 19.1658 26.8918 37.3896 14.848 54.7998Z" fill="#6F7A8E"/>
</mask>
<g mask="url(#mask0_192_2)">
<circle cx="34.4308" cy="33.5036" r="27.5826" transform="rotate(24.8038 34.4308 33.5036)" fill="#6F7A8E"/>
</g>
</g>
<defs>
<clipPath id="clip0_192_2">
<rect width="68" height="65" fill="white"/>
</clipPath>
</defs>
</svg>
