<svg width="47" height="47" viewBox="0 0 47 47" fill="none" xmlns="http://www.w3.org/2000/svg">
<path d="M0.0273705 35.5037C0.4464 38.688 2.01026 41.611 4.42687 43.7266C6.84348 45.8422 9.94757 47.0057 13.1594 47C31.8187 47 47 31.8188 47 13.1597C47.0057 9.94785 45.8421 6.84378 43.7265 4.42719C41.6109 2.0106 38.688 0.44675 35.5036 0.0277247C34.6983 -0.0705981 33.8829 0.0941408 33.179 0.49735C32.475 0.900558 31.9204 1.52061 31.5978 2.26495L26.6345 13.3453V13.3735C26.3876 13.9433 26.2856 14.5653 26.3377 15.1841C26.3897 15.8029 26.5943 16.3992 26.933 16.9197C26.9753 16.9831 27.0199 17.0419 27.0669 17.1006L31.9597 22.9005C30.1995 26.4772 26.4583 30.1856 22.8345 31.9504L17.1145 27.0835C17.0584 27.0363 16.9995 26.9923 16.9383 26.9519C16.4182 26.6051 15.8199 26.3934 15.1974 26.3359C14.575 26.2785 13.948 26.3771 13.3733 26.6229L13.3427 26.637L2.27166 31.5979C1.526 31.9193 0.904434 32.4735 0.499893 33.1775C0.0953522 33.8815 -0.0704193 34.6976 0.0273705 35.5037Z" fill="white"/>
</svg>
