<svg width="44" height="37" viewBox="0 0 44 37" fill="none" xmlns="http://www.w3.org/2000/svg">
<path d="M40.0201 0.321865C40.0201 0.321865 44.0673 -1.25626 43.73 2.57633C43.6176 4.15448 42.6058 9.67792 41.8189 15.6523L39.1207 33.3499C39.1207 33.3499 38.8959 35.9425 36.8723 36.3934C34.8486 36.8443 31.8133 34.8153 31.2511 34.3644C30.8015 34.0262 22.8196 28.9536 20.009 26.4737C19.222 25.7974 18.3226 24.4447 20.1214 22.8666L31.9257 11.5943C33.2748 10.2416 34.6239 7.08531 29.0027 10.9179L13.2636 21.6267C13.2636 21.6267 11.4649 22.7539 8.09229 21.7394L0.784814 19.4849C0.784814 19.4849 -1.91332 17.7941 2.69599 16.1031C13.9382 10.8051 27.7661 5.39438 40.0201 0.321865Z" fill="#6F7A8E"/>
</svg>
