<svg width="50" height="50" viewBox="0 0 50 50" fill="none" xmlns="http://www.w3.org/2000/svg">
<path d="M19.7687 0.00625L21.2875 0H28.7125L30.2333 0.00625L32.1375 0.0270833L33.0396 0.0416667L33.9104 0.0645833L34.75 0.09375L35.5583 0.127083L36.3375 0.170833L37.0875 0.222917L37.8062 0.285417L38.5 0.354167C42.125 0.7625 44.6104 1.6375 46.4854 3.5125C48.3604 5.3875 49.2354 7.87083 49.6437 11.4979L49.7146 12.1917L49.775 12.9125L49.8271 13.6625L49.8687 14.4396L49.9208 15.6646L49.9458 16.5187L49.9729 17.8604L49.9917 19.7667L50 21.8083L49.9979 28.7104L49.9917 30.2312L49.9708 32.1354L49.9562 33.0375L49.9333 33.9083L49.9042 34.7479L49.8708 35.5563L49.8271 36.3354L49.775 37.0854L49.7125 37.8042L49.6437 38.4979C49.2354 42.1229 48.3604 44.6083 46.4854 46.4833C44.6104 48.3583 42.1271 49.2333 38.5 49.6417L37.8062 49.7125L37.0854 49.7729L36.3354 49.825L35.5583 49.8667L34.3333 49.9188L33.4792 49.9438L32.1375 49.9708L30.2312 49.9896L28.1896 49.9979L21.2875 49.9958L19.7667 49.9896L17.8625 49.9688L16.9604 49.9542L16.0896 49.9313L15.25 49.9021L14.4417 49.8687L13.6625 49.825L12.9125 49.7729L12.1937 49.7104L11.5 49.6417C7.875 49.2333 5.38958 48.3583 3.51458 46.4833C1.63958 44.6083 0.764583 42.125 0.35625 38.4979L0.285417 37.8042L0.225 37.0833L0.172917 36.3333L0.13125 35.5563L0.0791667 34.3312L0.0541667 33.4771L0.0270833 32.1354L0.00833333 30.2292L0 28.1875L0.00208333 21.2854L0.00833333 19.7646L0.0291667 17.8604L0.04375 16.9583L0.0666667 16.0875L0.0958333 15.2479L0.129167 14.4396L0.172917 13.6604L0.225 12.9104L0.2875 12.1917L0.35625 11.4979C0.764583 7.87292 1.63958 5.3875 3.51458 3.5125C5.38958 1.6375 7.87292 0.7625 11.5 0.354167L12.1937 0.283333L12.9146 0.222917L13.6646 0.170833L14.4417 0.129167L15.6667 0.0770833L16.5208 0.0520833L17.8625 0.025L19.7687 0.00625ZM14.1458 15.2063H8.4375C8.70833 28.2062 15.2083 36.0188 26.6042 36.0188H27.25V28.5812C31.4375 28.9979 34.6042 32.0604 35.875 36.0188H41.7917C40.1667 30.1021 35.8958 26.8312 33.2292 25.5812C35.8958 24.0396 39.6458 20.2896 40.5417 15.2063H35.1667C34 19.3312 30.5417 23.0812 27.25 23.4354V15.2063H21.875V29.6229C18.5417 28.7896 14.3333 24.7479 14.1458 15.2063Z" fill="white"/>
</svg>
